<svg xmlns="http://www.w3.org/2000/svg" xmlns:xlink="http://www.w3.org/1999/xlink" x="0px" y="0px" width="48px" height="48px" viewBox="0 0 48 48"><g  transform="translate(0, 0)">
<path fill="#673bb7" d="M24,43C13.52344,43,5,34.47656,5,24S13.52344,5,24,5s19,8.52344,19,19S34.47656,43,24,43z M24,7&#10;&#9;C14.62598,7,7,14.62598,7,24s7.62598,17,17,17s17-7.62598,17-17S33.37402,7,24,7z"/>
<path fill="#FFFFFF" d="M24,11c-0.55273,0-1-0.44775-1-1V2c0-0.55225,0.44727-1,1-1s1,0.44775,1,1v8C25,10.55225,24.55273,11,24,11z&#10;&#9;"/>
<path fill="#FFFFFF" d="M46,25h-8c-0.55273,0-1-0.44775-1-1s0.44727-1,1-1h8c0.55273,0,1,0.44775,1,1S46.55273,25,46,25z"/>
<path fill="#FFFFFF" d="M24,47c-0.55273,0-1-0.44775-1-1v-8c0-0.55225,0.44727-1,1-1s1,0.44775,1,1v8C25,46.55225,24.55273,47,24,47&#10;&#9;z"/>
<path fill="#FFFFFF" d="M10,25H2c-0.55273,0-1-0.44775-1-1s0.44727-1,1-1h8c0.55273,0,1,0.44775,1,1S10.55273,25,10,25z"/>
<path fill="#FFFFFF" d="M24,27c-1.6543,0-3-1.3457-3-3s1.3457-3,3-3s3,1.3457,3,3S25.6543,27,24,27z"/>
</g></svg>